<svg width="40" height="40" viewBox="0 0 40 40" fill="none" xmlns="http://www.w3.org/2000/svg">
<rect y="0.00150013" width="40" height="40" rx="20" fill="#1F8EFA"/>
<g filter="url(#filter0_d_4201_2417)">
<path fill-rule="evenodd" clip-rule="evenodd" d="M21 13.0015C21 12.4492 20.5523 12.0015 20 12.0015C19.4477 12.0015 19 12.4492 19 13.0015V19.0015H13C12.4477 19.0015 12 19.4492 12 20.0015C12 20.5538 12.4477 21.0015 13 21.0015H19V27.0015C19 27.5538 19.4477 28.0015 20 28.0015C20.5523 28.0015 21 27.5538 21 27.0015V21.0015H27C27.5523 21.0015 28 20.5538 28 20.0015C28 19.4492 27.5523 19.0015 27 19.0015H21V13.0015Z" fill="white"/>
</g>
<defs>
<filter id="filter0_d_4201_2417" x="8" y="8.0015" width="24" height="25" filterUnits="userSpaceOnUse" color-interpolation-filters="sRGB">
<feFlood flood-opacity="0" result="BackgroundImageFix"/>
<feColorMatrix in="SourceAlpha" type="matrix" values="0 0 0 0 0 0 0 0 0 0 0 0 0 0 0 0 0 0 127 0" result="hardAlpha"/>
<feOffset dy="1"/>
<feColorMatrix type="matrix" values="0 0 0 0 0.109804 0 0 0 0 0.109804 0 0 0 0 0.109804 0 0 0 0.1 0"/>
<feBlend mode="normal" in2="BackgroundImageFix" result="effect1_dropShadow_4201_2417"/>
<feBlend mode="normal" in="SourceGraphic" in2="effect1_dropShadow_4201_2417" result="shape"/>
</filter>
</defs>
</svg>
